<svg width="45" height="31" viewBox="0 0 45 31" fill="none" xmlns="http://www.w3.org/2000/svg">
<path d="M44.028 4.02964L36.2521 8.28127C35.7646 8.48292 35.1507 8.51851 34.6799 8.26094C33.8148 7.46789 33.6185 6.3444 33.2242 5.33275C33.5503 5.11246 34.091 5.11415 34.4886 4.94809L36.4417 4.01439L43.9083 0H44.0713L44.028 4.02964Z" fill="#1A1A1A"/>
<path d="M29.1632 14.2787C29.1632 14.2787 27.3981 9.58617 26.518 7.34076H26.4282C24.9775 10.1539 23.8329 13.0941 22.3822 15.9072C20.5904 17.6138 18.1332 17.868 15.839 18.378L15.26 18.4492L15.28 18.173L23.4219 2.62453L23.6399 2.27543L29.7805 2.25171C30.1232 2.80417 30.3744 3.44983 30.6256 4.07516L34.0245 11.6265L29.1632 14.2787Z" fill="#1A1A1A"/>
<path d="M30.8302 18.6848C24.2121 21.9453 17.486 25.3548 9.4854 24.7854C6.28784 24.4838 3.0753 22.9315 1.6013 19.7829C-0.0374088 17.0749 0.133949 13.0079 1.96231 10.4727C4.87872 6.2294 9.23751 3.55191 13.756 2.27248C15.3099 1.92678 17.7488 1.23198 18.7936 3.0198C19.2078 4.10605 19.5472 5.21094 19.7635 6.37175C15.9521 6.25313 12.643 7.81048 9.60518 9.82707C7.21616 11.5691 4.79221 13.8467 3.84724 16.6055C3.5744 17.4325 3.71748 18.4442 4.29477 19.0898C6.67547 21.0268 10.2706 20.5184 13.2336 20.2303C18.925 19.322 24.1373 16.9546 29.1632 14.2788L34.0228 11.6251L43.9498 6.05316H44.058L44.0497 10.9472L35.911 15.8429L30.8302 18.6848Z" fill="#1A1A1A"/>
<path d="M35.9111 15.8428C35.9111 15.8428 38.4997 21.8283 39.7225 24.6821L34.2674 24.6703C33.6352 24.6686 33.0396 24.1907 32.8249 23.6179C32.1595 21.9605 31.4408 20.3404 30.8302 18.683L35.9111 15.8428Z" fill="#1A1A1A"/>
<path d="M41.1317 27.1953C41.1267 28.1358 41.125 30.8691 41.125 30.8691H0.450151C0.456805 29.7609 0.448486 27.1953 0.448486 27.1953H41.1317Z" fill="#1A1A1A"/>
</svg>
