<svg width="110" height="27" viewBox="0 0 110 27" fill="none" xmlns="http://www.w3.org/2000/svg">
<path d="M4.30957 21.2889L5.56122 17.2379H10.5182L11.6919 21.2889H16.2832L11.7179 5.83851C11.4572 4.93166 10.8827 4.50381 9.89178 4.50381H3.39763V5.96371H3.94502C4.62333 5.96371 4.989 6.21628 4.989 6.71816C4.989 7.04584 4.91 7.32237 4.64929 8.0779L0.08284 21.2889H4.30957ZM9.89178 14.4945H6.21357L8.16949 8.32829L9.89178 14.4945ZM21.5731 21.2889V5.78735C21.5731 4.98282 21.0788 4.50381 20.2684 4.50381H16.2516V5.96371H16.5123C17.1906 5.96371 17.4773 6.24023 17.4773 6.89452V21.2878H21.5731V21.2889ZM28.5311 21.2889V5.78735C28.5311 4.98282 28.0345 4.50381 27.2287 4.50381H23.2096V5.96371H23.4704C24.1487 5.96371 24.4353 6.24023 24.4353 6.89452V21.2878H28.5311V21.2889ZM35.5952 21.2889V9.98851C35.5952 9.18507 35.0998 8.70715 34.2917 8.70715H30.3257V10.1409H30.5615C31.2399 10.1409 31.5265 10.4425 31.5265 11.0968V21.2878H35.5952V21.2889ZM35.6731 6.03883C35.6731 4.90662 34.8131 4.22729 33.3256 4.22729C31.864 4.22729 30.978 4.90662 30.978 6.03883C30.978 7.17104 31.864 7.85146 33.3256 7.85146C34.8131 7.85146 35.6731 7.17104 35.6731 6.03883ZM39.0579 12.3041C40.4145 11.6759 41.902 11.3243 43.0758 11.3243C44.1706 11.3243 44.5622 11.7021 44.5622 12.8071V13.0847C42.893 13.3351 42.3716 13.4374 41.4325 13.6388C40.9065 13.7561 40.3916 13.9156 39.8931 14.1156C38.2498 14.7449 37.4665 15.9783 37.4665 17.8639C37.4665 20.2535 38.5365 21.413 40.7542 21.413C41.5623 21.413 42.2937 21.2638 42.9449 21.0112C43.5194 20.7609 43.858 20.5584 44.6932 19.9291V20.1055C44.6932 20.8861 45.1107 21.2878 45.9188 21.2878H49.649V19.9291H49.4673C48.7619 19.9291 48.5012 19.6276 48.5012 18.8209V12.8332C48.5012 9.63687 47.3533 8.5297 44.0397 8.5297C42.972 8.5297 41.9291 8.65489 40.91 8.88134C39.8931 9.10778 39.3705 9.30918 38.1448 9.88944L39.0579 12.3041ZM44.5622 15.25V17.6908C43.8839 18.3691 43.0499 18.773 42.3445 18.773C41.6154 18.773 41.3547 18.4202 41.3547 17.4883C41.3547 16.5564 41.5623 16.1297 42.2937 15.8532C42.8411 15.6267 43.5453 15.4264 44.5622 15.25ZM55.5912 21.2889V12.7842C56.2695 12.0548 56.9738 11.7271 57.7819 11.7271C58.643 11.7271 58.8507 12.0548 58.8507 13.3144V21.2899H62.9194V12.7352C62.9194 10.7473 62.7637 10.1191 62.1102 9.43873C61.5628 8.85956 60.7288 8.55582 59.6577 8.55582C58.0686 8.55582 56.9456 9.03484 55.4321 10.3935V9.89053C55.4321 9.10887 55.0167 8.70715 54.1793 8.70715H50.3194V10.1409H50.5541C51.2336 10.1409 51.5202 10.4425 51.5202 11.0968V21.2878H55.5912V21.2889ZM74.9958 18.6456H69.3075L74.7351 11.2993V8.70715H66.2308C65.2636 8.70715 64.8223 9.13391 64.8223 10.0658V12.3542H66.3358V12.1288C66.3358 11.5507 66.6484 11.2731 67.2997 11.2731H70.2228L64.7444 18.6967V21.2889H74.998V18.6456H74.9958ZM109.059 13.4875C109.059 5.76231 103.084 0 95.073 0C87.0654 0 81.0644 5.76231 81.0644 13.4875C81.0644 21.2377 87.0654 27 95.073 27C103.084 27 109.059 21.2377 109.059 13.4875ZM106.293 13.4875C106.293 19.854 101.543 24.4852 95.073 24.4852C88.5778 24.4852 83.8567 19.854 83.8567 13.4875C83.8567 7.14709 88.5789 2.517 95.073 2.517C101.543 2.517 106.293 7.14709 106.293 13.4875ZM91.4479 20.6084V8.4045H89.1771C88.0552 8.4045 87.6105 8.83235 87.6105 9.91448V20.6074H91.4479V20.6084ZM98.6982 20.6084H102.508V9.91448C102.508 8.83235 102.091 8.4045 100.942 8.4045H98.6982V20.6084ZM96.9782 20.6084V6.44272C96.9782 5.30942 96.5865 4.93166 95.4116 4.93166H91.9952V6.49171H92.204L92.5697 6.51566C92.7006 6.51566 92.8293 6.59187 92.9354 6.69312C93.0923 6.86839 93.1431 7.04476 93.1431 7.42252V20.6084H96.9782Z" fill="#1A1A1A"/>
</svg>
